<svg width="139" height="130" viewBox="0 0 139 130" fill="none" xmlns="http://www.w3.org/2000/svg">
<rect width="139" height="130" rx="12" fill="#1F519E"/>
<path d="M26.9999 108.089V101.137H29.5308C30.307 101.137 30.9028 101.279 31.3197 101.563C31.7366 101.848 31.945 102.249 31.945 102.766C31.945 103.141 31.8175 103.469 31.5639 103.75C31.3104 104.032 30.9868 104.228 30.5917 104.337V104.355C31.0864 104.418 31.4815 104.6 31.777 104.903C32.0726 105.206 32.2204 105.577 32.2204 106.014C32.2204 106.65 31.9932 107.155 31.5375 107.529C31.0817 107.902 30.4595 108.089 29.6708 108.089H26.9999ZM28.5664 102.291V103.94H29.2555C29.579 103.94 29.8326 103.862 30.0193 103.705C30.2044 103.548 30.2977 103.333 30.2977 103.058C30.2977 102.548 29.9166 102.293 29.1528 102.293H28.5664V102.291ZM28.5664 105.102V106.935H29.4141C29.7766 106.935 30.0597 106.851 30.265 106.683C30.4704 106.515 30.573 106.284 30.573 105.993C30.573 105.715 30.4719 105.497 30.2697 105.339C30.0675 105.18 29.7859 105.101 29.4235 105.101H28.5664V105.102Z" fill="white"/>
<path d="M36.3037 108.21C35.3082 108.21 34.4962 107.886 33.8693 107.238C33.2424 106.589 32.9282 105.746 32.9282 104.705C32.9282 103.607 33.247 102.717 33.8833 102.039C34.5195 101.361 35.3642 101.02 36.4141 101.02C37.4066 101.02 38.2092 101.345 38.8206 101.996C39.4335 102.646 39.7399 103.501 39.7399 104.565C39.7399 105.657 39.4226 106.539 38.7879 107.208C38.1532 107.876 37.3257 108.21 36.3037 108.21ZM36.3721 102.369C35.823 102.369 35.3859 102.574 35.0624 102.986C34.7388 103.399 34.577 103.943 34.577 104.623C34.577 105.312 34.7388 105.856 35.0624 106.256C35.3859 106.658 35.809 106.857 36.3333 106.857C36.873 106.857 37.3008 106.662 37.6181 106.272C37.9355 105.883 38.0926 105.342 38.0926 104.649C38.0926 103.929 37.9386 103.368 37.6321 102.966C37.3257 102.568 36.9057 102.369 36.3721 102.369Z" fill="white"/>
<path d="M43.8341 108.21C42.8385 108.21 42.0266 107.886 41.3997 107.238C40.7728 106.589 40.4586 105.746 40.4586 104.705C40.4586 103.607 40.7774 102.717 41.4137 102.039C42.0499 101.361 42.8945 101.02 43.9445 101.02C44.937 101.02 45.7396 101.345 46.351 101.996C46.9639 102.646 47.2703 103.501 47.2703 104.565C47.2703 105.657 46.953 106.539 46.3183 107.208C45.6836 107.876 44.8545 108.21 43.8341 108.21ZM43.901 102.369C43.3519 102.369 42.9148 102.574 42.5912 102.986C42.2677 103.399 42.1059 103.943 42.1059 104.623C42.1059 105.312 42.2677 105.856 42.5912 106.256C42.9148 106.658 43.3379 106.857 43.8621 106.857C44.4019 106.857 44.8296 106.662 45.147 106.272C45.4643 105.883 45.6214 105.342 45.6214 104.649C45.6214 103.929 45.4674 103.368 45.161 102.966C44.8545 102.568 44.4345 102.369 43.901 102.369Z" fill="white"/>
<path d="M54.2034 108.089H52.2247L50.1979 105.068C50.159 105.01 50.0983 104.883 50.0143 104.685H49.9894V108.089H48.423V101.137H49.9894V104.424H50.0143C50.0532 104.334 50.117 104.205 50.2087 104.037L52.1283 101.137H53.9949L51.5714 104.453L54.2034 108.089Z" fill="white"/>
<path d="M56.434 108.089H54.8676V101.137H56.434V108.089Z" fill="white"/>
<path d="M64.2693 108.089H62.6889L59.8235 103.721C59.6555 103.466 59.5389 103.273 59.4751 103.144H59.4564C59.4829 103.389 59.4953 103.764 59.4953 104.268V108.089H58.016V101.137H59.7038L62.4617 105.37C62.5877 105.561 62.7044 105.749 62.8102 105.937H62.8289C62.8024 105.776 62.79 105.457 62.79 104.982V101.137H64.2693V108.089Z" fill="white"/>
<path d="M71.5649 107.624C70.8866 108.014 70.042 108.21 69.034 108.21C67.9155 108.21 67.0335 107.9 66.3895 107.281C65.744 106.662 65.422 105.81 65.422 104.724C65.422 103.632 65.7736 102.741 66.4782 102.053C67.1829 101.364 68.1193 101.02 69.2906 101.02C70.028 101.02 70.6766 101.121 71.2397 101.325V102.794C70.7031 102.484 70.0466 102.328 69.272 102.328C68.6218 102.328 68.0929 102.54 67.6838 102.962C67.2747 103.383 67.0709 103.946 67.0709 104.651C67.0709 105.365 67.2544 105.917 67.6215 106.309C67.9887 106.7 68.4833 106.896 69.1071 106.896C69.482 106.896 69.7791 106.843 69.9984 106.735V105.377H68.6078V104.127H71.5649V107.624Z" fill="white"/>
<path d="M79.8263 108.089H75.6575V101.137H79.6677V102.413H77.2239V103.959H79.4981V105.23H77.2239V106.819H79.8279V108.089H79.8263Z" fill="white"/>
<path d="M87.1965 108.089H85.6161L82.7508 103.721C82.5828 103.466 82.4661 103.273 82.4023 103.144H82.3837C82.4101 103.389 82.4226 103.764 82.4226 104.268V108.089H80.9432V101.137H82.631L85.389 105.37C85.515 105.561 85.6317 105.749 85.7374 105.937H85.7561C85.7297 105.776 85.7172 105.457 85.7172 104.982V101.137H87.1965V108.089Z" fill="white"/>
<path d="M94.492 107.624C93.8138 108.014 92.9691 108.21 91.9611 108.21C90.8427 108.21 89.9607 107.9 89.3167 107.281C88.6711 106.662 88.3491 105.81 88.3491 104.724C88.3491 103.632 88.7007 102.741 89.4053 102.053C90.11 101.364 91.0464 101.02 92.2178 101.02C92.9551 101.02 93.6038 101.121 94.1669 101.325V102.794C93.6302 102.484 92.9738 102.328 92.1991 102.328C91.5489 102.328 91.02 102.54 90.6109 102.962C90.2018 103.383 89.998 103.946 89.998 104.651C89.998 105.365 90.1816 105.917 90.5487 106.309C90.9158 106.7 91.4104 106.896 92.0342 106.896C92.4091 106.896 92.7062 106.843 92.9255 106.735V105.377H91.5349V104.127H94.492V107.624Z" fill="white"/>
<path d="M97.4118 108.089H95.8453V101.137H97.4118V108.089Z" fill="white"/>
<path d="M105.246 108.089H103.665L100.8 103.721C100.632 103.466 100.515 103.273 100.451 103.144H100.433C100.459 103.389 100.472 103.764 100.472 104.268V108.089H98.9923V101.137H100.68L103.438 105.37C103.564 105.561 103.681 105.749 103.787 105.937H103.805C103.779 105.776 103.766 105.457 103.766 104.982V101.137H105.246V108.089Z" fill="white"/>
<path d="M111.006 108.089H106.837V101.137H110.847V102.413H108.403V103.959H110.678V105.23H108.403V106.819H111.007V108.089H111.006Z" fill="white"/>
<path d="M46.0228 97.7226H41.2908L39.9188 93.4339H33.0635L31.7055 97.7226H27L34.0171 78.4447H39.1659L46.0228 97.7226ZM38.9248 90.0988L36.8544 83.6184C36.702 83.1347 36.5946 82.556 36.5324 81.884H36.4251C36.38 82.4487 36.268 83.0087 36.0891 83.564L33.9922 90.0973H38.9248V90.0988Z" fill="white"/>
<path d="M65.1141 97.7225H60.7586V89.8716H52.7724V97.7225H48.4293V78.443H52.7724V86.1337H60.7586V78.443H65.1141V97.7225Z" fill="white"/>
<path d="M77.6704 98.0586C74.9093 98.0586 72.66 97.1594 70.9209 95.3628C69.1818 93.5661 68.3123 91.225 68.3123 88.3379C68.3123 85.2906 69.1943 82.8266 70.9614 80.9444C72.7269 79.0622 75.0664 78.1211 77.9784 78.1211C80.7302 78.1211 82.9546 79.0218 84.6533 80.8231C86.3519 82.6244 87.2013 84.9997 87.2013 87.9475C87.2013 90.9777 86.3208 93.4199 84.56 95.2741C82.7991 97.1299 80.5015 98.0586 77.6704 98.0586ZM77.8587 81.8575C76.3342 81.8575 75.1256 82.4284 74.2296 83.5717C73.3336 84.7151 72.8856 86.2271 72.8856 88.1093C72.8856 90.0179 73.3336 91.5284 74.2296 92.6406C75.1256 93.7512 76.3 94.3081 77.7513 94.3081C79.2478 94.3081 80.4362 93.7684 81.3135 92.6888C82.1924 91.6093 82.6311 90.1097 82.6311 88.1917C82.6311 86.1928 82.2049 84.6373 81.354 83.5266C80.5015 82.4144 79.338 81.8575 77.8587 81.8575Z" fill="white"/>
<path d="M104.384 78.443L98.1057 90.8656V97.7225H93.7627V90.9465L87.6462 78.443H92.6069L95.7118 85.6359C95.7662 85.7712 95.914 86.2954 96.1551 87.2085H96.2095C96.3262 86.563 96.4646 86.0574 96.6264 85.6888L99.7857 78.443H104.384Z" fill="white"/>
<path d="M108.873 98.0305C108.156 98.0305 107.565 97.8127 107.098 97.3787C106.632 96.9447 106.4 96.4174 106.4 95.7983C106.4 95.1527 106.635 94.6238 107.106 94.2116C107.577 93.7994 108.165 93.5925 108.875 93.5925C109.592 93.5925 110.178 93.801 110.636 94.2178C111.093 94.6347 111.322 95.1605 111.322 95.7967C111.322 96.4423 111.095 96.9758 110.643 97.3974C110.189 97.8205 109.6 98.0305 108.873 98.0305ZM111.079 78.443L110.555 91.7258H107.114L106.616 78.443H111.079Z" fill="white"/>
<path d="M83.8998 47.8221C83.8998 47.8221 82.5776 52.8776 79.6221 55.3665L81.8776 55.7554C81.8776 55.7554 80.0888 61.2776 74.3332 60.1887C73.2366 59.9818 71.6888 58.322 71.6888 55.9887C71.6888 50.2285 71.4555 38.1777 71.4555 38.1777H78.1443V34.4444H70.9888V31.4546C72.647 30.6473 73.7888 28.9455 73.7888 26.9778C73.7888 24.2291 71.5597 22 68.811 22C66.0624 22 63.8333 24.2291 63.8333 26.9778C63.8333 29.126 65.1944 30.9553 67.0999 31.6537V34.5999H59.7888V38.1777H66.6333C66.6333 38.1777 66.711 54.1221 66.3221 55.7554C65.9333 57.3887 64.387 60.7518 61.7333 60.3443C57.6889 59.722 56.2111 55.5998 56.2111 55.5998L58.6222 55.2109C58.6222 55.2109 55.9778 53.3443 54.6555 47.8221C54.6555 47.8221 51.6222 51.011 51 57.8554L53.0222 56.6109C53.0222 56.6109 55.6666 64.2331 61.8888 65.7887C66.2444 66.8776 69.1999 71.0775 69.1999 71.0775C69.1999 71.0775 70.1332 68.4331 77.5999 65.6331C84.8332 62.9202 84.4443 56.9221 84.4443 56.9221L86.7776 57.6998C86.7776 57.6998 87.6332 51.3999 83.8998 47.8221ZM66.3221 26.9778C66.3221 25.6026 67.4359 24.4889 68.811 24.4889C70.1861 24.4889 71.2999 25.6026 71.2999 26.9778C71.2999 28.3529 70.1861 29.4666 68.811 29.4666C67.4359 29.4666 66.3221 28.3529 66.3221 26.9778Z" fill="white"/>
</svg>
