<!-- Generated by IcoMoon.io -->
<svg version="1.1" xmlns="http://www.w3.org/2000/svg" width="32" height="32" viewBox="0 0 32 32">
<title>bookings</title>
<path fill="#6d7986" d="M16.896 22.229h-4.167v1.042h4.167v-1.042z"></path>
<path fill="#6d7986" d="M17.937 24.313h-6.25v1.042h6.25v-1.042z"></path>
<path fill="#6d7986" d="M24.187 4h-7.812c-1.438 0.002-2.603 1.167-2.604 2.604v1.562h-6.25c-0.288 0-0.521 0.233-0.521 0.521v19.792c0 0.288 0.233 0.521 0.521 0.521h14.583c0.288 0 0.521-0.233 0.521-0.521v-2.083h1.563c1.437-0.002 2.602-1.167 2.604-2.604v-17.187c-0.002-1.438-1.167-2.602-2.604-2.604zM21.583 27.958h-13.542v-18.75h7.292v7.812c0 0.113 0.037 0.222 0.104 0.313 0.173 0.23 0.499 0.277 0.729 0.104l1.771-1.328 1.771 1.328c0.090 0.068 0.2 0.104 0.312 0.104 0.288 0 0.521-0.233 0.521-0.521v-7.813h1.042v18.75zM16.375 9.208h3.125v6.771l-1.25-0.937c-0.185-0.139-0.44-0.139-0.625 0l-1.25 0.937v-6.771zM22.104 8.167h-7.292v-1.563c0-0.863 0.699-1.563 1.563-1.563h7.292v20.312h-1.042v-16.667c0-0.288-0.233-0.521-0.521-0.521zM25.75 23.792c0 0.68-0.435 1.259-1.042 1.473v-20.134c0.607 0.215 1.042 0.793 1.042 1.473v17.187z"></path>
<path fill="#6d7986" d="M14.292 12.333v-1.042h-4.167v-1.042h-1.042v1.563c0 0.288 0.233 0.521 0.521 0.521h1.87l-0.675 0.675 0.737 0.737 1.412-1.412 1.344 0z"></path>
<path fill="#6d7986" d="M10.646 24.313h-1.042v1.042h1.042v-1.042z"></path>
<path fill="#6d7986" d="M20.021 24.313h-1.042v1.042h1.042v-1.042z"></path>
</svg>
