<!-- Generated by IcoMoon.io -->
<svg version="1.1" xmlns="http://www.w3.org/2000/svg" width="32" height="32" viewBox="0 0 32 32">
<title>coupons</title>
<path fill="#6d7986" d="M28.778 17.212c0.307 0 0.556-0.271 0.556-0.606v-3.030c0-1.337-0.997-2.424-2.222-2.424h-4.182c-0.16-0.386-0.263-0.788-0.263-1.212 0-1.097 0.558-2.112 1.457-2.647 0.131-0.078 0.228-0.211 0.268-0.368s0.022-0.324-0.052-0.466l-1.354-2.579c-0.296-0.562-0.773-0.964-1.344-1.131-0.569-0.166-1.163-0.079-1.672 0.244l-16.202 10.289c-1.051 0.668-1.413 2.151-0.807 3.305l1.4 2.669c0.074 0.142 0.198 0.245 0.343 0.286s0.298 0.017 0.426-0.067c0.448-0.295 0.928-0.445 1.425-0.445 1.213 0 2.272 0.872 2.633 2.132-0.36 1.219-1.397 2.11-2.633 2.11-0.307 0-0.556 0.271-0.556 0.606v3.030c0 1.337 0.997 2.424 2.222 2.424h18.89c1.226 0 2.222-1.087 2.222-2.424v-3.030c0-0.335-0.249-0.606-0.556-0.606-1.532 0-2.778-1.359-2.778-3.030s1.246-3.030 2.778-3.030zM20.529 4.041c0.251-0.16 0.546-0.204 0.825-0.121 0.284 0.083 0.52 0.283 0.667 0.563l1.092 2.081c-0.973 0.796-1.558 2.042-1.558 3.376 0 0.411 0.062 0.819 0.172 1.212h-12.396l11.198-7.111zM6.555 17.818c-0.508 0-1.016 0.115-1.493 0.336l-1.137-2.169c-0.304-0.579-0.124-1.322 0.401-1.655l1.703-1.082c-0.014 0.108-0.030 0.215-0.030 0.328v3.030c0 0.335 0.248 0.606 0.556 0.606 1.022 0 1.907 0.612 2.39 1.512-0.665-0.571-1.499-0.906-2.39-0.906zM24.889 20.243c0 2.134 1.451 3.904 3.333 4.199v2.467c0 0.668-0.499 1.212-1.111 1.212h-13.334v-1.061c0-0.335-0.248-0.606-0.556-0.606s-0.556 0.271-0.556 0.606v1.061h-4.445c-0.613 0-1.111-0.544-1.111-1.212v-2.467c1.882-0.295 3.333-2.066 3.333-4.199s-1.451-3.904-3.333-4.199v-2.467c0-0.668 0.499-1.212 1.111-1.212h4.445v1.364c0 0.335 0.248 0.606 0.556 0.606s0.556-0.271 0.556-0.606v-1.364h13.334c0.613 0 1.111 0.544 1.111 1.212v2.467c-1.882 0.295-3.333 2.065-3.333 4.199z"></path>
<path fill="#6d7986" d="M13.222 16.758c-0.307 0-0.556 0.271-0.556 0.606v1.212c0 0.335 0.248 0.606 0.556 0.606s0.556-0.271 0.556-0.606v-1.212c0-0.335-0.249-0.606-0.556-0.606z"></path>
<path fill="#6d7986" d="M13.222 21.606c-0.307 0-0.556 0.271-0.556 0.606v1.212c0 0.335 0.248 0.606 0.556 0.606s0.556-0.271 0.556-0.606v-1.212c0-0.335-0.249-0.606-0.556-0.606z"></path>
<path fill="#6d7986" d="M23.555 14.909c-0.245-0.199-0.593-0.146-0.777 0.121l-6.667 9.697c-0.185 0.267-0.135 0.647 0.111 0.848 0.1 0.082 0.216 0.121 0.333 0.121 0.169 0 0.336-0.083 0.445-0.243l6.667-9.697c0.185-0.267 0.135-0.647-0.111-0.848z"></path>
<path fill="#6d7986" d="M17.666 19.637c0.935 0 1.667-1.065 1.667-2.424s-0.732-2.424-1.667-2.424c-0.935 0-1.667 1.065-1.667 2.424s0.732 2.424 1.667 2.424zM17.666 16c0.227 0 0.556 0.472 0.556 1.212s-0.329 1.212-0.556 1.212-0.556-0.472-0.556-1.212c0-0.74 0.329-1.212 0.556-1.212z"></path>
<path fill="#6d7986" d="M22.111 20.849c-0.935 0-1.667 1.065-1.667 2.424s0.732 2.424 1.667 2.424c0.935 0 1.667-1.065 1.667-2.424s-0.732-2.424-1.667-2.424zM22.111 24.485c-0.227 0-0.556-0.472-0.556-1.212s0.329-1.212 0.556-1.212 0.556 0.472 0.556 1.212c0 0.74-0.329 1.212-0.556 1.212z"></path>
</svg>
