<svg width="24" height="24" viewBox="0 0 24 24" fill="none" xmlns="http://www.w3.org/2000/svg">
<g clip-path="url(#clip0_24_77)">
<path d="M23.9665 12.8148C23.8805 12.1935 23.2401 11.6965 22.0406 11.3333C21.0705 11.0418 19.8423 10.865 18.5042 10.8363V5.73715C18.5042 5.63201 18.4707 5.53165 18.4038 5.45041C18.2461 4.89605 17.6057 4.44682 16.497 4.1123C15.4217 3.78733 14.0167 3.6105 12.54 3.6105C11.0681 3.6105 9.67742 3.78733 8.62604 4.1123C7.76105 4.37992 6.72401 4.87693 6.72401 5.73237C6.72401 5.78494 6.72879 5.83751 6.73835 5.89007L6.79092 8.06929C3.68937 7.47191 0.692951 9.51253 0.100358 12.6189C0.0334528 12.9677 0 13.3262 0 13.6846C0 16.8387 2.56631 19.405 5.72043 19.405C7.03465 19.405 8.30585 18.951 9.32855 18.1242C10.227 18.3345 11.2784 18.4492 12.3919 18.4588C12.6356 19.7825 15.503 20.3895 18.1792 20.3895C19.6511 20.3895 21.037 20.2079 22.098 19.8781C22.9677 19.6105 24 19.1087 24 18.2533V13.0012C24 12.9391 23.9904 12.8722 23.9665 12.8148ZM8.91278 5.02508C9.87814 4.72878 11.1685 4.56152 12.5448 4.56152C13.9116 4.56152 15.2497 4.72878 16.2246 5.02508C17.2616 5.34049 17.4863 5.66546 17.4863 5.73237C17.4863 5.79927 17.2616 6.12902 16.2198 6.43966C15.2497 6.73117 13.9116 6.90322 12.5448 6.90322C11.2258 6.90322 9.97372 6.75029 9.0227 6.47311C7.99522 6.17681 7.70848 5.84706 7.68459 5.74193C7.68459 5.73237 7.68459 5.72759 7.67981 5.72759C7.68459 5.66068 7.90442 5.33571 8.91278 5.02508ZM17.5484 6.92711V8.15053C17.5054 8.21743 17.4815 8.29868 17.4863 8.37992C17.4863 8.44205 17.2616 8.77179 16.2198 9.08721C15.2497 9.37872 13.9068 9.55077 12.54 9.55077C11.3596 9.55077 10.2031 9.42651 9.28554 9.19234C9.27121 9.18756 9.26165 9.18756 9.24731 9.18279C8.79331 8.82436 8.29152 8.5424 7.75149 8.33691L7.71804 6.98924C8.04779 7.1565 8.39188 7.29031 8.7503 7.38589C9.78734 7.68697 11.1302 7.84945 12.54 7.84945C14.0167 7.84945 15.4217 7.67263 16.4922 7.34766C16.8602 7.2473 17.2139 7.10393 17.5484 6.92711ZM8.92712 17.2067C6.98208 18.9797 3.96655 18.8363 2.19833 16.8913C0.430108 14.9462 0.568698 11.9307 2.51374 10.1625C3.39307 9.36439 4.53524 8.91994 5.72043 8.91994C6.19833 8.91994 6.67622 8.99163 7.13501 9.13022C8.78853 9.65113 10.0358 11.0227 10.3943 12.7192C10.4564 13.0346 10.4898 13.3596 10.4898 13.6798C10.4898 15.0275 9.92115 16.3082 8.92712 17.2067ZM10.141 17.3118C10.5281 16.8387 10.8387 16.3082 11.0585 15.7395C11.4648 15.773 11.8949 15.7969 12.3345 15.8017V15.8877L12.3584 17.5078C11.6177 17.4982 10.8769 17.4313 10.141 17.3118ZM11.4122 13.1159C11.6941 13.135 11.9857 13.1446 12.282 13.1493C12.282 13.1589 12.2867 13.1732 12.2867 13.1828L12.3154 14.8411C11.9761 14.8363 11.6464 14.822 11.3262 14.7981C11.3978 14.4301 11.4361 14.0526 11.4361 13.6798C11.4409 13.4934 11.4313 13.307 11.4122 13.1159ZM12.5878 12.1983C12.5735 12.1983 12.5591 12.1983 12.5448 12.1983C12.086 12.1983 11.6416 12.1792 11.2306 12.1505C11.049 11.5101 10.7622 10.908 10.3751 10.3727C11.092 10.4636 11.8136 10.5113 12.54 10.5113C14.0167 10.5113 15.4217 10.3345 16.497 10.0095C16.865 9.89485 17.2139 9.75626 17.5484 9.57944V10.8459C15.4934 10.9032 13.3716 11.3333 12.5878 12.1983ZM13.2282 12.9343C13.276 12.8005 13.6249 12.4898 14.6045 12.2127C15.5364 11.9498 16.7503 11.8064 18.0263 11.8064H18.0884C19.4552 11.8064 20.7933 11.9641 21.7682 12.2604C22.7766 12.5663 23.0155 12.8722 23.0299 12.9534V12.9582C23.0251 13.0299 22.7861 13.3596 21.7252 13.675C20.7455 13.9665 19.4552 14.1242 18.0884 14.1242C16.7981 14.1242 15.5651 13.9761 14.6189 13.7133C13.7061 13.4552 13.3381 13.1637 13.2473 13.0155C13.2425 12.9868 13.2378 12.9582 13.2282 12.9343ZM23.0442 18.2533C23.0442 18.3202 22.8292 18.6499 21.816 18.9653C20.8459 19.2664 19.5556 19.4337 18.1792 19.4337C16.7981 19.4337 15.5078 19.2712 14.552 18.9797C13.5388 18.669 13.3333 18.3489 13.3333 18.2772C13.3333 18.2724 13.3333 18.2724 13.3333 18.2676L13.3094 16.8865C14.4468 17.4647 16.3441 17.7276 18.0836 17.7276C19.5603 17.7276 20.9558 17.5508 22.0263 17.2258C22.3799 17.1207 22.7192 16.9773 23.0442 16.8052V18.2533ZM23.0012 15.6057C23.0012 15.6726 22.7814 15.9976 21.7491 16.313C20.7694 16.6093 19.4695 16.7718 18.0836 16.7718C15.46 16.7718 13.6822 16.184 13.2903 15.7204L13.2808 15.3094L13.2616 14.215C13.6105 14.3919 13.9737 14.5305 14.3513 14.6308C15.3787 14.9176 16.7025 15.08 18.0789 15.08C19.5317 15.08 20.9176 14.908 21.9833 14.5926C22.3513 14.4874 22.7049 14.3489 23.0394 14.172V15.4002H23.0442C23.0442 15.4624 23.0012 15.534 23.0012 15.6057Z" fill="black"/>
<path d="M8.10518 16.2365C8.0096 15.988 7.7372 15.8686 7.48869 15.9594C7.48869 15.9546 7.48869 15.9546 7.48869 15.9546C6.58547 16.2987 5.56755 16.0788 4.88893 15.3954C4.75034 15.2712 4.63565 15.123 4.54963 14.9606H7.00602C7.26886 14.9606 7.48391 14.7455 7.48391 14.4827C7.48391 14.2198 7.26886 14.0048 7.00602 14.0048H4.20076C4.17209 13.8327 4.16731 13.6559 4.18642 13.4791H7.25452C7.51737 13.4791 7.73242 13.264 7.73242 13.0012C7.73242 12.7383 7.51737 12.5233 7.25452 12.5233H4.46838C4.58308 12.3178 4.72167 12.1314 4.88415 11.9594C5.56755 11.2808 6.58547 11.0609 7.48391 11.4098C7.73242 11.5054 8.00482 11.3811 8.1004 11.1374C8.19598 10.8889 8.07173 10.6165 7.828 10.5209C6.57591 10.0382 5.15656 10.3393 4.20554 11.2903C3.8519 11.6392 3.58427 12.0597 3.41701 12.5281H2.7384C2.47555 12.5281 2.2605 12.7431 2.2605 13.006C2.2605 13.2688 2.47555 13.4839 2.7384 13.4839H3.21629C3.20673 13.6607 3.20673 13.8327 3.22585 14.0095H2.7384C2.47555 14.0095 2.2605 14.2246 2.2605 14.4874C2.2605 14.7503 2.47555 14.9653 2.7384 14.9653H3.46958C3.63206 15.3811 3.88535 15.7634 4.20554 16.0788C5.15178 17.0299 6.57113 17.3357 7.828 16.853C8.07651 16.7575 8.19598 16.4851 8.10518 16.2365Z" fill="black"/>
</g>
<defs>
<clipPath id="clip0_24_77">
<rect width="24" height="24" fill="white"/>
</clipPath>
</defs>
</svg>
