<!-- Generated by IcoMoon.io -->
<svg version="1.1" xmlns="http://www.w3.org/2000/svg" width="32" height="32" viewBox="0 0 32 32">
<title>supplements</title>
<path fill="#6d7986" d="M24.791 15.766c-0.226 0-0.434-0.151-0.511-0.37-0.074-0.213-0.014-0.46 0.153-0.61 0.177-0.159 0.435-0.182 0.637-0.059 0.188 0.115 0.292 0.345 0.258 0.568-0.042 0.267-0.272 0.472-0.536 0.472z"></path>
<path fill="#6d7986" d="M24.79 13.246c-0.3 0-0.543-0.25-0.543-0.559v-4.901h-1.789v16.429h0.743c0.577 0 1.047-0.484 1.047-1.078v-5.389c0-0.309 0.243-0.559 0.543-0.559s0.543 0.25 0.543 0.559v5.389c0 1.212-0.957 2.197-2.133 2.197h-14.401c-1.176 0-2.133-0.986-2.133-2.197v-15.91c0-0.309 0.243-0.559 0.543-0.559l17.581-0c0.3 0 0.543 0.25 0.543 0.559v5.461c0 0.309-0.243 0.559-0.543 0.559zM21.372 7.786h-13.619v12.96h13.619v-12.96zM7.753 21.864v1.272c0 0.595 0.47 1.078 1.047 1.078h12.572v-2.35h-13.619z"></path>
<path fill="#6d7986" d="M18.077 17.357h-7.030c-0.3 0-0.543-0.25-0.543-0.559v-6.697c0-0.309 0.243-0.559 0.543-0.559s0.543 0.25 0.543 0.559v6.138h5.944v-6.138c0-0.309 0.243-0.559 0.543-0.559s0.543 0.25 0.543 0.559v6.697c0 0.309-0.243 0.559-0.543 0.559z"></path>
</svg>
