<svg width="24" height="24" viewBox="0 0 24 24" fill="none" xmlns="http://www.w3.org/2000/svg">
<path fill-rule="evenodd" clip-rule="evenodd" d="M6.04492 12.5241C6.04492 10.5984 7.69212 9.08566 9.66224 9.08566H14.3235C16.2936 9.08566 17.9409 10.5984 17.9409 12.5241V13.0852C17.9409 13.431 17.6569 13.7113 17.3065 13.7113C16.9562 13.7113 16.6722 13.431 16.6722 13.0852V12.5241C16.6722 11.3434 15.6483 10.3378 14.3235 10.3378H9.66224C8.33741 10.3378 7.31358 11.3433 7.31358 12.5241V13.0852C7.31358 13.431 7.02958 13.7113 6.67925 13.7113C6.32892 13.7113 6.04492 13.431 6.04492 13.0852V12.5241Z" fill="black"/>
<path fill-rule="evenodd" clip-rule="evenodd" d="M12.0142 1.31509L12.0145 1.31509C14.1997 1.31509 15.911 3.02435 15.911 5.15603V6.48784C15.911 8.61393 14.1519 10.3288 11.9929 10.3288C9.83378 10.3288 8.07471 8.61393 8.07471 6.48784V5.15607C8.07471 4.09389 8.51531 3.13235 9.22416 2.43847L9.67085 2.88298L9.22416 2.43847C9.97631 1.70214 10.9642 1.31559 12.0142 1.31509ZM12.0148 2.56723C13.496 2.56738 14.6424 3.71287 14.6424 5.15603ZM12.0145 2.56723C11.2879 2.56764 10.6243 2.83136 10.1175 3.32748L10.1175 3.32749C9.6379 3.79701 9.34336 4.44271 9.34336 5.15607V6.48784C9.34336 7.91283 10.5247 9.07664 11.9929 9.07664C13.461 9.07664 14.6424 7.91282 14.6424 6.48784V5.15603" fill="black"/>
<path fill-rule="evenodd" clip-rule="evenodd" d="M9.69048 2.23825C10.0408 2.23825 10.3248 2.51855 10.3248 2.86432V2.98552C10.3248 3.54709 10.8879 4.14551 11.7604 4.14551H14.6272C14.9775 4.14551 15.2615 4.42581 15.2615 4.77158C15.2615 5.11734 14.9775 5.39764 14.6272 5.39764H11.7604C10.3528 5.39764 9.05615 4.3914 9.05615 2.98552V2.86432C9.05615 2.51855 9.34015 2.23825 9.69048 2.23825Z" fill="black"/>
<path fill-rule="evenodd" clip-rule="evenodd" d="M4.13825 12.6778C4.25876 12.539 4.43472 12.4591 4.61993 12.4591H19.3657C19.551 12.4591 19.7269 12.539 19.8475 12.6779C19.968 12.8167 20.021 13.0006 19.9926 13.1812L18.5814 22.1549C18.5334 22.4599 18.2673 22.6849 17.9546 22.6849H6.02966C5.71686 22.6849 5.45075 22.4599 5.40282 22.1548L3.99309 13.1811C3.96471 13.0005 4.01774 12.8166 4.13825 12.6778ZM5.36019 13.7113L6.57321 21.4328H17.4111L18.6254 13.7113H5.36019Z" fill="black"/>
<path fill-rule="evenodd" clip-rule="evenodd" d="M10.0898 17.572C10.0899 16.5366 10.9438 15.6938 11.9928 15.6938C13.0419 15.6938 13.8958 16.5365 13.8958 17.572C13.8958 18.6074 13.042 19.4502 11.9928 19.4502C10.9437 19.4502 10.0898 18.6075 10.0898 17.572M11.9928 16.9459C11.6444 16.9459 11.3585 17.2281 11.3585 17.572V17.572C11.3585 17.9159 11.6444 18.1981 11.9928 18.1981C12.3412 18.1981 12.6272 17.9159 12.6272 17.572C12.6272 17.2281 12.3412 16.9459 11.9928 16.9459Z" fill="black"/>
</svg>
