<svg width="24" height="24" viewBox="0 0 24 24" fill="none" xmlns="http://www.w3.org/2000/svg">
<path d="M6.86942 10.0469C6.96712 10.0469 7.06279 10.0072 7.13179 9.93816C7.20079 9.86901 7.24051 9.77334 7.24051 9.67578C7.24051 9.57808 7.20079 9.48241 7.13179 9.41341C7.06279 9.34441 6.96712 9.30469 6.86942 9.30469C6.77142 9.30469 6.67619 9.34441 6.60704 9.41341C6.53804 9.48241 6.49832 9.57808 6.49832 9.67578C6.49832 9.77334 6.53804 9.86901 6.60704 9.93816C6.67619 10.0072 6.77186 10.0469 6.86942 10.0469Z" fill="#6D7986"/>
<path d="M12.1853 9.55501C12.116 9.48601 12.0207 9.44629 11.9227 9.44629C11.8251 9.44629 11.7293 9.48601 11.6603 9.55501C11.5913 9.62401 11.5516 9.71983 11.5516 9.81738C11.5516 9.91494 11.5913 10.0108 11.6603 10.0798C11.7293 10.1488 11.8251 10.1885 11.9227 10.1885C12.0207 10.1885 12.116 10.1488 12.1853 10.0798C12.2543 10.0108 12.2938 9.91538 12.2938 9.81738C12.2938 9.71983 12.2543 9.62401 12.1853 9.55501Z" fill="#6D7986"/>
<path d="M13.2218 8.88965C13.3195 8.88965 13.4152 8.84993 13.4842 8.78093C13.5532 8.71193 13.5926 8.61611 13.5926 8.51856C13.5926 8.421 13.5532 8.32518 13.4842 8.25618C13.4152 8.18718 13.3195 8.14746 13.2218 8.14746C13.1239 8.14746 13.0281 8.18718 12.9591 8.25618C12.8901 8.32518 12.8504 8.421 12.8504 8.51856C12.8504 8.61611 12.8901 8.71193 12.9591 8.78093C13.0281 8.84993 13.1239 8.88965 13.2218 8.88965Z" fill="#6D7986"/>
<path d="M19.8868 11.1288H18.8513L20.674 9.30609C20.8842 9.09575 21 8.81612 21 8.51881C21 8.2215 20.8842 7.94188 20.674 7.73169L19.0208 6.07843C18.876 5.93361 18.641 5.93361 18.496 6.07843C18.2858 6.28876 18.0062 6.40458 17.7089 6.40458C17.4114 6.40458 17.132 6.28876 16.9216 6.07843C16.7113 5.86824 16.5956 5.58861 16.5956 5.2913C16.5956 4.99384 16.7114 4.71436 16.9216 4.50402C16.9912 4.43444 17.0304 4.34008 17.0304 4.24165C17.0304 4.14322 16.9912 4.04885 16.9216 3.97927L15.2685 2.32616C15.0582 2.11582 14.7787 2 14.4812 2C14.1839 2 13.9043 2.11582 13.6941 2.32616L7.56497 8.45518C7.42001 8.59999 7.42001 8.83497 7.56497 8.97993C7.70993 9.12489 7.94491 9.12489 8.08987 8.97993L14.2189 2.85091C14.289 2.78075 14.3821 2.74219 14.4812 2.74219C14.5804 2.74219 14.6736 2.78075 14.7436 2.85091L16.1606 4.26774C15.9607 4.56868 15.8534 4.9218 15.8534 5.2913C15.8534 5.78691 16.0464 6.25281 16.3969 6.60332C16.7474 6.95369 17.2133 7.14678 17.7089 7.14678C18.0784 7.14678 18.4314 7.03951 18.7325 6.83961L20.1493 8.25644C20.294 8.40111 20.294 8.63652 20.1493 8.78119L17.8017 11.1288H16.1748L17.3941 9.90955C17.5389 9.76459 17.5389 9.52961 17.3941 9.3848L13.6154 5.60615C13.4705 5.46119 13.2355 5.46119 13.0905 5.60615L7.56787 11.1288H3.11328C2.49938 11.1288 2 11.6282 2 12.2421V14.58C2 14.7848 2.16612 14.9511 2.37109 14.9511C2.985 14.9511 3.48438 15.4505 3.48438 16.0644C3.48438 16.6781 2.985 17.1777 2.37109 17.1777C2.16612 17.1777 2 17.3438 2 17.5488V19.8867C2 20.5004 2.49938 20.9999 3.11328 20.9999H19.8868C20.5007 20.9999 21 20.5004 21 19.8867V17.5488C21 17.3438 20.8339 17.1777 20.629 17.1777C20.0151 17.1777 19.5157 16.6781 19.5157 16.0644C19.5157 15.4505 20.0151 14.9511 20.629 14.9511C20.8339 14.9511 21 14.7848 21 14.58V12.2421C21 11.6282 20.5007 11.1288 19.8868 11.1288ZM13.3529 6.39328L16.6068 9.64718L15.1252 11.1288H13.6557L14.7436 10.0407C14.8886 9.89593 14.8886 9.66095 14.7436 9.51599C14.5988 9.37103 14.3638 9.37103 14.2189 9.51599L12.6061 11.1287H8.61752L13.3529 6.39328ZM20.2579 14.2462C19.412 14.4185 18.7735 15.1682 18.7735 16.0644C18.7735 16.9604 19.412 17.7101 20.2579 17.8826V19.8867C20.2579 20.0912 20.0914 20.2578 19.8868 20.2578H3.11328C2.9086 20.2578 2.74219 20.0912 2.74219 19.8867V17.8826C3.58802 17.7101 4.22657 16.9604 4.22657 16.0644C4.22657 15.1682 3.58802 14.4187 2.74219 14.2462V12.2421C2.74219 12.0374 2.9086 11.871 3.11328 11.871H19.8868C20.0914 11.871 20.2579 12.0374 20.2579 12.2421V14.2462Z" fill="#6D7986"/>
<path d="M9.92543 15.4362C9.99443 15.3671 10.0342 15.2714 10.0342 15.1738C10.0342 15.0761 9.99443 14.9805 9.92543 14.9115C9.85643 14.8425 9.76061 14.8027 9.66306 14.8027C9.5655 14.8027 9.46968 14.8425 9.40068 14.9115C9.33168 14.9805 9.29196 15.0761 9.29196 15.1738C9.29196 15.2714 9.33168 15.3671 9.40068 15.4362C9.46968 15.5052 9.5655 15.5449 9.66306 15.5449C9.76061 15.5449 9.85643 15.5052 9.92543 15.4362Z" fill="#6D7986"/>
<path d="M13.5993 15.4362C13.6683 15.3671 13.708 15.2714 13.708 15.1738C13.708 15.0761 13.6683 14.9805 13.5993 14.9115C13.5303 14.8425 13.4344 14.8027 13.3369 14.8027C13.2393 14.8027 13.1435 14.8425 13.0745 14.9115C13.0055 14.9805 12.9658 15.0761 12.9658 15.1738C12.9658 15.2714 13.0055 15.3671 13.0745 15.4362C13.1435 15.5052 13.2393 15.5449 13.3369 15.5449C13.4344 15.5449 13.5303 15.5052 13.5993 15.4362Z" fill="#6D7986"/>
<path d="M11.7623 15.4362C11.8313 15.3671 11.8711 15.2714 11.8711 15.1738C11.8711 15.0761 11.8313 14.9805 11.7623 14.9115C11.6933 14.8425 11.5975 14.8027 11.5 14.8027C11.4024 14.8027 11.3066 14.8425 11.2376 14.9115C11.1686 14.9805 11.1289 15.0761 11.1289 15.1738C11.1289 15.2714 11.1686 15.3671 11.2376 15.4362C11.3066 15.5052 11.4024 15.5449 11.5 15.5449C11.5975 15.5449 11.6933 15.5052 11.7623 15.4362Z" fill="#6D7986"/>
<path d="M7.82614 15.5449C7.9237 15.5449 8.01952 15.5052 8.08852 15.4362C8.15752 15.3671 8.19724 15.2714 8.19724 15.1738C8.19724 15.0761 8.15752 14.9805 8.08852 14.9115C8.01952 14.8425 7.9237 14.8027 7.82614 14.8027C7.72858 14.8027 7.63277 14.8425 7.56377 14.9115C7.49477 14.9805 7.45505 15.0761 7.45505 15.1738C7.45505 15.2714 7.49477 15.3671 7.56377 15.4362C7.63277 15.5052 7.72858 15.5449 7.82614 15.5449Z" fill="#6D7986"/>
<path d="M15.4362 15.4362C15.5052 15.3671 15.5449 15.2714 15.5449 15.1738C15.5449 15.0761 15.5052 14.9805 15.4362 14.9115C15.3672 14.8425 15.2714 14.8027 15.1738 14.8027C15.0763 14.8027 14.9805 14.8425 14.9115 14.9115C14.8425 14.9805 14.8027 15.0761 14.8027 15.1738C14.8027 15.2714 14.8425 15.3671 14.9115 15.4362C14.9805 15.5052 15.0763 15.5449 15.1738 15.5449C15.2714 15.5449 15.3672 15.5052 15.4362 15.4362Z" fill="#6D7986"/>
<path d="M7.82614 17.3262H15.1738C15.3788 17.3262 15.5449 17.1599 15.5449 16.9551C15.5449 16.7501 15.3788 16.584 15.1738 16.584H7.82614C7.62117 16.584 7.45505 16.7501 7.45505 16.9551C7.45505 17.1599 7.62117 17.3262 7.82614 17.3262Z" fill="#6D7986"/>
<path d="M9.17395 18.3652C9.07639 18.3652 8.98058 18.405 8.91158 18.474C8.84258 18.543 8.80286 18.6386 8.80286 18.7363C8.80286 18.8339 8.84258 18.9296 8.91158 18.9987C8.98058 19.0677 9.07639 19.1074 9.17395 19.1074C9.27194 19.1074 9.36733 19.0677 9.43633 18.9987C9.50576 18.9296 9.54505 18.8339 9.54505 18.7363C9.54505 18.6386 9.50576 18.543 9.43633 18.474C9.36733 18.405 9.27194 18.3652 9.17395 18.3652Z" fill="#6D7986"/>
<path d="M17.1406 13.0215H5.85935C5.65437 13.0215 5.48825 13.1876 5.48825 13.3926V18.7364C5.48825 18.9412 5.65437 19.1075 5.85935 19.1075H7.40519C7.61016 19.1075 7.77628 18.9412 7.77628 18.7364C7.77628 18.5314 7.61016 18.3653 7.40519 18.3653H6.23044V13.7637H16.7695V18.3653H10.745C10.5401 18.3653 10.3739 18.5314 10.3739 18.7364C10.3739 18.9412 10.5401 19.1075 10.745 19.1075H17.1406C17.3456 19.1075 17.5117 18.9412 17.5117 18.7364V13.3926C17.5117 13.1876 17.3456 13.0215 17.1406 13.0215Z" fill="#6D7986"/>
</svg>
