<svg width="24" height="24" viewBox="0 0 24 24" fill="none" xmlns="http://www.w3.org/2000/svg">
<path d="M21.1556 15.5578C21.6607 15.3622 22 14.8645 22 14.3192V11.7962C22 11.0484 21.3916 10.44 20.6438 10.44H20.5054C20.9159 9.90851 20.878 9.14001 20.3908 8.65278L18.6069 6.86877C18.2213 6.48322 17.6295 6.37118 17.134 6.59001C16.8679 6.70758 16.5508 6.64825 16.3451 6.44248C16.1393 6.23667 16.08 5.9196 16.1975 5.65351C16.4163 5.15808 16.3043 4.56614 15.9187 4.18056L14.1348 2.39654C13.6061 1.86786 12.7457 1.86778 12.2169 2.39654L4.17376 10.44H3.35616C2.60835 10.44 2 11.0484 2 11.7962V14.3192C2 14.8645 2.33933 15.3623 2.84439 15.5578C3.11565 15.6628 3.29792 15.9289 3.29792 16.22C3.29792 16.511 3.11565 16.7772 2.84439 16.8822C2.33933 17.0778 2 17.5756 2 18.1209V20.6438C2 21.3916 2.60835 22 3.35616 22H20.6438C21.3916 22 22 21.3916 22 20.6438V18.1209C22 17.5756 21.6607 17.0778 21.1556 16.8822C20.8844 16.7771 20.7021 16.511 20.7021 16.22C20.7021 15.9289 20.8844 15.6628 21.1556 15.5578ZM13.0488 3.22853C13.1189 3.15845 13.2329 3.15845 13.3029 3.22849L15.0868 5.01251C15.1315 5.05718 15.1453 5.12373 15.1213 5.1782C14.809 5.88532 14.9665 6.72774 15.5131 7.27439C16.0598 7.82107 16.9022 7.97853 17.6093 7.66624C17.6637 7.64224 17.7303 7.65605 17.775 7.70071L19.5589 9.48469C19.629 9.55477 19.629 9.66882 19.5589 9.73882L18.8578 10.44H15.7926L10.8151 5.46229L13.0488 3.22853ZM9.98318 6.2942L14.1289 10.44H5.83749L9.98318 6.2942ZM3.17647 20.6438V18.1209C3.17647 18.0577 3.21376 18.0008 3.26925 17.9793C3.99008 17.7001 4.47435 16.9931 4.47435 16.22C4.47435 15.4468 3.99004 14.7398 3.26918 14.4606C3.21373 14.4392 3.17647 14.3823 3.17647 14.3192V11.7962C3.17647 11.6971 3.2571 11.6165 3.35616 11.6165H16.7059V20.8235H3.35616C3.2571 20.8235 3.17647 20.7429 3.17647 20.6438ZM20.8235 14.3192C20.8235 14.3823 20.7863 14.4392 20.7308 14.4607C20.01 14.7398 19.5256 15.4468 19.5256 16.22C19.5256 16.9932 20.0099 17.7002 20.7307 17.9793C20.7862 18.0008 20.8235 18.0577 20.8235 18.1209V20.6438C20.8235 20.7429 20.7429 20.8235 20.6438 20.8235H17.8824V11.6165H20.6438C20.7429 11.6165 20.8235 11.6971 20.8235 11.7962V14.3192Z" fill="black"/>
<path d="M6 13H15V14H6V13Z" fill="black"/>
<path d="M6 16H15V17H6V16Z" fill="black"/>
<path d="M6 18H15V19H6V18Z" fill="black"/>
</svg>
