<svg width="32" height="32" viewBox="0 0 32 32">
<path fill="#6d7986" d="M24.571 26.057h-15.924c-0.202-0.003-0.374-0.149-0.41-0.348-0.005-0.023-0.008-0.047-0.009-0.071-0.002-0.11 0.041-0.216 0.12-0.293 0.078-0.081 0.187-0.127 0.3-0.126h8.381c0.231 0 0.419-0.188 0.419-0.419s-0.188-0.419-0.419-0.419h-8.381c-0.335-0-0.657 0.134-0.892 0.373-0.235 0.234-0.367 0.552-0.365 0.884 0 0.072 0.007 0.144 0.021 0.215 0.106 0.601 0.627 1.039 1.236 1.043h15.924c0.231 0 0.419-0.188 0.419-0.419s-0.188-0.419-0.419-0.419z"></path><path fill="#6d7986" d="M27.924 3.429h-19.276c-1.619 0.002-2.931 1.314-2.933 2.933v19.695c0.003 0.075 0.028 0.147 0.073 0.207 0.288 1.349 1.481 2.311 2.86 2.307h19.276c0.231 0 0.419-0.188 0.419-0.419v-24.305c0-0.231-0.188-0.419-0.419-0.419zM27.505 22.705h-17.6v-18.438h17.6v18.438zM6.552 6.362c0.001-1.157 0.939-2.094 2.095-2.095h0.419v2.933h-0.419c-0.789-0-1.545 0.319-2.095 0.885v-1.723zM6.552 10.133c0.001-1.157 0.939-2.094 2.095-2.095h0.419v2.933h-0.419c-0.789-0-1.545 0.319-2.095 0.885v-1.723zM6.552 13.905c0.001-1.157 0.939-2.094 2.095-2.095h0.419v2.933h-0.419c-0.789-0-1.545 0.319-2.095 0.885v-1.723zM6.552 17.676c0.001-1.157 0.939-2.094 2.095-2.095h0.419v2.933h-0.419c-0.789-0-1.545 0.319-2.095 0.885v-1.723zM6.552 23.585v-2.137c0.001-1.157 0.939-2.094 2.095-2.095h0.419v3.352h-0.419c-0.778-0.004-1.525 0.306-2.072 0.859l-0.024 0.021zM8.648 27.733c-1.026 0.003-1.902-0.74-2.065-1.753-0.021-0.113-0.031-0.227-0.031-0.342 0.002-1.156 0.939-2.093 2.095-2.095h18.857v0.831c-0.989 0.007-3.761 0.007-7.124 0.007-0.231 0-0.419 0.188-0.419 0.419s0.188 0.419 0.419 0.419c2.235 0 6.753-0.003 7.124-0.016v2.531h-18.857z"></path><path fill="#6d7986" d="M13.346 12.537c-0.178 0.959-0.086 1.949 0.264 2.86 0.004 0.014 0.009 0.028 0.015 0.042 0.594 1.541 1.852 2.731 3.424 3.238l0.007 0.003c0.533 0.169 1.089 0.255 1.649 0.254 0.076 0 0.15-0.008 0.226-0.011 0.007 0 0.014 0.003 0.021 0.003s0.024-0.005 0.036-0.006c1.872-0.098 3.563-1.151 4.475-2.789 0.013-0.018 0.024-0.037 0.034-0.056 0.694-1.28 0.845-2.785 0.419-4.177 0-0.005 0-0.010-0.003-0.014-0.629-2.023-2.371-3.5-4.47-3.789-0.017-0.003-0.034-0.006-0.052-0.007-1.084-0.148-2.188 0.045-3.158 0.551-0.020 0.008-0.039 0.017-0.057 0.028-1.477 0.777-2.517 2.187-2.824 3.828-0.003 0.015-0.005 0.029-0.006 0.044zM14.095 13.486c0-0.038 0.005-0.074 0.006-0.112 0.116 0.055 0.241 0.092 0.369 0.109 0.156 0.013 0.313 0.004 0.467-0.027-0.095 0.223-0.213 0.436-0.352 0.635-0.108 0.161-0.229 0.312-0.362 0.453-0.084-0.347-0.127-0.702-0.128-1.059zM19.254 18.059c-0.106-0.391-0.15-0.796-0.13-1.201l0.009-0.222c0.024-0.601 0.049-0.926 0.296-1.186 0.314-0.324 0.783-0.446 1.215-0.317 0.153 0.061 0.219 0.15 0.345 0.328 0.105 0.162 0.231 0.309 0.375 0.438 0.278 0.228 0.615 0.372 0.972 0.416-0.754 0.969-1.863 1.597-3.082 1.745zM22.735 11.254c-0.485-0.163-0.989-0.258-1.5-0.282-0.078-0.003-0.158-0.005-0.241-0.006-0.408 0.052-0.821-0.052-1.155-0.291-0.217-0.274-0.323-0.62-0.296-0.968-0.003-0.248 0.035-0.495 0.112-0.731 1.308 0.278 2.432 1.109 3.081 2.278zM18.812 8.882c-0.074 0.273-0.11 0.555-0.107 0.838-0.027 0.566 0.168 1.121 0.542 1.547 0.483 0.404 1.108 0.597 1.734 0.536 0.076 0 0.15 0.002 0.223 0.006 0.679 0.038 1.344 0.211 1.955 0.509 0.287 1.067 0.174 2.203-0.32 3.192-0.329 0.034-0.659-0.054-0.927-0.247-0.090-0.084-0.169-0.18-0.236-0.284-0.167-0.28-0.42-0.5-0.721-0.626-0.752-0.262-1.588-0.059-2.135 0.52-0.475 0.499-0.499 1.097-0.525 1.729l-0.010 0.216c-0.020 0.424 0.018 0.848 0.111 1.262-0.206-0.012-0.41-0.038-0.613-0.077 0.123-0.276 0.144-0.587 0.060-0.877-0.128-0.326-0.375-0.591-0.691-0.743-0.25-0.122-0.455-0.321-0.587-0.566-0.196-0.41-0.198-0.887-0.005-1.299 0.111-0.196 0.28-0.354 0.484-0.451 0.353-0.18 0.633-0.478 0.79-0.842 0.169-0.488 0.176-1.017 0.021-1.509-0.105-0.46-0.303-0.894-0.581-1.276-0.108-0.154-0.203-0.316-0.286-0.484-0.092-0.214-0.149-0.442-0.168-0.675 0.592-0.267 1.233-0.405 1.882-0.404 0.036 0 0.071 0.005 0.107 0.006zM16.037 9.734c0.044 0.198 0.108 0.391 0.192 0.575 0.1 0.208 0.216 0.408 0.348 0.597 0.221 0.297 0.379 0.637 0.461 0.997 0.114 0.323 0.121 0.675 0.022 1.003-0.092 0.198-0.251 0.356-0.45 0.446-0.333 0.175-0.608 0.445-0.788 0.775-0.319 0.648-0.321 1.406-0.006 2.056 0.199 0.389 0.513 0.707 0.898 0.912 0.215 0.133 0.306 0.197 0.338 0.293 0.022 0.127-0.001 0.258-0.065 0.37-1.087-0.441-1.966-1.277-2.46-2.341 0.287-0.253 0.541-0.542 0.754-0.859 0.562-0.827 0.692-1.422 0.387-1.769-0.217-0.206-0.531-0.272-0.813-0.171-0.096 0.023-0.195 0.034-0.293 0.032-0.134-0.026-0.256-0.096-0.346-0.198 0.255-1.098 0.902-2.065 1.82-2.718z"/>
</svg>