<!-- Generated by IcoMoon.io -->
<svg version="1.1" xmlns="http://www.w3.org/2000/svg" width="32" height="32" viewBox="0 0 32 32">
<title>tours</title>
<path fill="#6d7986" d="M18.744 12.604c0.524-0.531 0.524-1.391 0-1.921-0.26-0.269-0.621-0.413-0.993-0.396-0.372 0.013-0.722 0.181-0.967 0.464l-1.529 1.777-4.622-1.941c-0.162-0.067-0.349-0.030-0.473 0.095l-0.859 0.869c-0.088 0.090-0.134 0.213-0.126 0.34s0.070 0.243 0.169 0.32l3.675 2.819-1.975 2.061-2.186-0.832c-0.16-0.062-0.34-0.023-0.46 0.1l-0.426 0.431c-0.089 0.090-0.136 0.214-0.127 0.341s0.071 0.244 0.17 0.321l2.12 1.62 0.357 0.36 1.56 2.107c0.075 0.102 0.191 0.167 0.317 0.176h0.031c0.115-0 0.226-0.046 0.307-0.129l0.427-0.432c0.12-0.121 0.159-0.301 0.101-0.462l-0.788-2.176 2.036-1.999 2.75 3.675c0.076 0.101 0.191 0.165 0.316 0.173 0.125 0.006 0.247-0.040 0.337-0.128l0.856-0.866c0.124-0.126 0.161-0.315 0.094-0.479l-1.913-4.678 1.75-1.543c0.025-0.021 0.049-0.044 0.072-0.068zM18.107 12.004l-1.991 1.755c-0.141 0.124-0.188 0.325-0.116 0.5l1.926 4.7-0.298 0.302-2.746-3.669c-0.075-0.101-0.189-0.163-0.313-0.173s-0.247 0.035-0.335 0.123l-2.577 2.531c-0.132 0.12-0.179 0.309-0.118 0.478l0.582 1.61-0.949-1.281c-0.012-0.016-0.026-0.032-0.040-0.047l-0.375-0.379c-0.019-0.023-0.041-0.043-0.065-0.061l-1.297-0.991 1.613 0.615c0.162 0.062 0.345 0.020 0.465-0.106l2.514-2.623c0.087-0.090 0.131-0.214 0.122-0.339s-0.072-0.241-0.171-0.317l-3.668-2.814 0.301-0.304 4.643 1.948c0.172 0.072 0.371 0.025 0.493-0.117l1.734-2.015c0.086-0.101 0.21-0.161 0.342-0.164 0.131-0.008 0.258 0.043 0.347 0.14 0.089 0.089 0.139 0.211 0.138 0.338-0.001 0.137-0.059 0.267-0.159 0.36z"></path>
<path fill="#6d7986" d="M20 13.333h1.333v1.333h-1.333v-1.333z"></path>
<path fill="#6d7986" d="M21.333 13.333h2.667v1.333h-2.667v-1.333z"></path>
<path fill="#6d7986" d="M20 16h1.333v1.333h-1.333v-1.333z"></path>
<path fill="#6d7986" d="M22.667 16h1.333v1.333h-1.333v-1.333z"></path>
<path fill="#6d7986" d="M20 17.333h4v1.333h-4v-1.333z"></path>
<path fill="#6d7986" d="M15.373 3.937h1.255v1.27h-1.255v-1.27z"></path>
<path fill="#6d7986" d="M15.373 26.794h1.255v1.27h-1.255v-1.27z"></path>
<path fill="#6d7986" d="M25.387 7.111h-2.133v-3.111c0-0.736-0.573-1.333-1.28-1.333h-11.947c-0.707 0-1.28 0.597-1.28 1.333v3.111h-2.133c-0.707 0-1.28 0.597-1.28 1.333v15.111c0 0.736 0.573 1.333 1.28 1.333h2.133v3.111c0 0.736 0.573 1.333 1.28 1.333h11.947c0.707 0 1.28-0.597 1.28-1.333v-3.111h2.133c0.707 0 1.28-0.597 1.28-1.333v-15.111c0-0.736-0.573-1.333-1.28-1.333zM10.027 3.556h11.947c0.236 0 0.427 0.199 0.427 0.444v1.333h-12.8v-1.333c0-0.246 0.191-0.444 0.427-0.444zM9.6 6.222h12.8v0.889h-12.8v-0.889zM21.973 28.444h-11.947c-0.236 0-0.427-0.199-0.427-0.444v-1.333h12.8v1.333c0 0.246-0.191 0.444-0.427 0.444zM22.4 25.778h-12.8v-0.889h12.8v0.889zM25.813 23.556c0 0.245-0.191 0.444-0.427 0.444h-18.773c-0.236 0-0.427-0.199-0.427-0.444v-15.111c0-0.246 0.191-0.444 0.427-0.444h18.773c0.236 0 0.427 0.199 0.427 0.444v15.111z"></path>
</svg>
