<!-- Generated by IcoMoon.io -->
<svg version="1.1" xmlns="http://www.w3.org/2000/svg" width="32" height="32" viewBox="0 0 32 32">
<title>card</title>
<path fill="#6d7986" d="M26.555 6.667h-21.111c-1.531 0-2.778 1.309-2.778 2.917v12.833c0 1.608 1.247 2.917 2.778 2.917h21.111c1.531 0 2.778-1.309 2.778-2.917v-12.833c0-1.608-1.247-2.917-2.778-2.917zM28.222 22.417c0 0.965-0.748 1.75-1.667 1.75h-21.111c-0.919 0-1.667-0.785-1.667-1.75v-12.833c0-0.965 0.748-1.75 1.667-1.75h21.111c0.919 0 1.667 0.785 1.667 1.75v12.833z"></path>
<path fill="#6d7986" d="M28.778 10.167h-25.555c-0.307 0-0.556 0.261-0.556 0.583v3.5c0 0.322 0.249 0.583 0.556 0.583h25.555c0.307 0 0.556-0.261 0.556-0.583v-3.5c0-0.322-0.249-0.583-0.556-0.583zM28.222 13.667h-24.444v-2.333h24.444v2.333z"></path>
<path fill="#6d7986" d="M13.222 19.666h-6.667c-0.307 0-0.556 0.261-0.556 0.583s0.249 0.583 0.556 0.583h6.667c0.307 0 0.556-0.261 0.556-0.583s-0.249-0.583-0.556-0.583z"></path>
<path fill="#6d7986" d="M24.333 17.167h-1.111c-0.919 0-1.667 0.785-1.667 1.75v1.167c0 0.965 0.748 1.75 1.667 1.75h1.111c0.919 0 1.667-0.785 1.667-1.75v-1.167c0-0.965-0.748-1.75-1.667-1.75zM24.889 20.083c0 0.322-0.249 0.583-0.556 0.583h-1.111c-0.307 0-0.556-0.261-0.556-0.583v-1.167c0-0.322 0.249-0.583 0.556-0.583h1.111c0.307 0 0.556 0.261 0.556 0.583v1.167z"></path>
</svg>
